HIERARCHY
ROOT Hips
{
     OFFSET 1.88212 96.90440 -13.34250
     CHANNELS 6 Xposition Yposition Zposition Zrotation Xrotation Yrotation
     JOINT Spine
     {
          OFFSET 0.00000 11.89050 0.00000
          CHANNELS 3 Zrotation Xrotation Yrotation
          JOINT Spine1
          {
               OFFSET -0.00000 25.65740 0.12766
               CHANNELS 3 Zrotation Xrotation Yrotation
               JOINT HEad
               {
                    OFFSET 0.00000 8.73416 0.01134
                    CHANNELS 3 Zrotation Xrotation Yrotation
                    End Site
                    {
                         OFFSET -0.29000 12.77420 2.51395
                    }
               }
               JOINT LeftShoulder1
               {
                    OFFSET 8.99000 -0.36225 -0.22000
                    CHANNELS 3 Zrotation Xrotation Yrotation
                    JOINT LeftArm
                    {
                         OFFSET 10.28270 -0.00338 0.32212
                         CHANNELS 3 Zrotation Xrotation Yrotation
                         JOINT LeftForeArm
                         {
                              OFFSET 32.76690 0.09914 -1.42434
                              CHANNELS 3 Zrotation Xrotation Yrotation
                              JOINT LeftHand
                              {
                                   OFFSET 27.56430 0.08536 1.02216
                                   CHANNELS 3 Zrotation Xrotation Yrotation
                                   End Site
                                   {
                                        OFFSET 16.74430 -0.60000 1.50291
                                   }
                              }
                         }
                    }
               }
               JOINT RightShoulder
               {
                    OFFSET -8.99000 -0.36225 -0.22000
                    CHANNELS 3 Zrotation Xrotation Yrotation
                    JOINT RightArm
                    {
                         OFFSET -10.28270 -0.00338 0.32212
                         CHANNELS 3 Zrotation Xrotation Yrotation
                         JOINT RightForeArm
                         {
                              OFFSET -32.89710 0.09914 -1.42434
                              CHANNELS 3 Zrotation Xrotation Yrotation
                              JOINT RightHand
                              {
                                   OFFSET -27.49210 0.08536 1.02216
                                   CHANNELS 3 Zrotation Xrotation Yrotation
                                   End Site
                                   {
                                        OFFSET -16.63120 -0.60000 1.50291
                                   }
                              }
                         }
                    }
               }
          }
     }
     JOINT LeftUpLeg
     {
          OFFSET 8.94580 -8.66707 0.10165
          CHANNELS 3 Zrotation Xrotation Yrotation
          JOINT LeftLeg
          {
               OFFSET 0.00000 -44.42270 1.37270
               CHANNELS 3 Zrotation Xrotation Yrotation
               JOINT LeftFoot
               {
                    OFFSET -0.25355 -42.09240 -1.46059
                    CHANNELS 3 Zrotation Xrotation Yrotation
                    JOINT LeftToes
                    {
                         OFFSET -0.04000 -4.41509 8.49910
                         CHANNELS 3 Zrotation Xrotation Yrotation
                         End Site
                         {
                              OFFSET 0.08000 -0.04745 9.77979
                         }
                    }
               }
          }
     }
     JOINT RightUpLeg
     {
          OFFSET -8.94580 -8.66707 0.10165
          CHANNELS 3 Zrotation Xrotation Yrotation
          JOINT RightLeg
          {
               OFFSET 0.00000 -44.42270 1.37270
               CHANNELS 3 Zrotation Xrotation Yrotation
               JOINT RightFoot
               {
                    OFFSET 0.25355 -42.09240 -1.46059
                    CHANNELS 3 Zrotation Xrotation Yrotation
                    JOINT RightToes
                    {
                         OFFSET 0.04000 -4.41509 8.49910
                         CHANNELS 3 Zrotation Xrotation Yrotation
                         End Site
                         {
                              OFFSET -0.08000 -0.13745 9.77979
                         }
                    }
               }
          }
     }
}
MOTION
Frames: 10
Frame Time: 0.01667
89.02098 71.97772 -107.27515 -11.46107 -1.47325 -30.47320 7.02258 14.01855 4.38007 -0.01349 0.03398 0.03199 2.58209 5.00592 5.76395 -10.63831 16.03727 8.54474 -108.86637 -54.64608 -91.68184 -45.17672 58.15447 -98.28294 6.87988 9.45687 1.10543 9.91522 20.58188 14.32982 72.99606 -27.36929 78.24664 31.49874 52.14173 107.70592 -6.79165 12.05554 1.52881 14.11438 -40.77703 27.71752 357.76511 71.39456 -343.33102 48.55882 -0.16202 0.74747 -57.91565 -29.60678 -18.44460 -29.64823 -15.52169 -6.65622 -357.61005 46.02118 373.46744 31.63853 -0.07305 -0.23324 11.82489 13.45918 -22.39061 
91.88991 75.94742 -105.63853 -12.09824 -0.83735 -33.55023 8.71252 13.13685 4.44599 -0.01157 0.03015 0.02943 -0.10090 10.69051 5.95559 -12.38925 16.09415 10.53838 -106.84957 -54.91673 -89.36292 -43.88542 58.52089 -99.90700 8.95158 10.20734 3.26944 8.15459 21.30881 15.97822 72.42489 -27.82411 76.81468 31.61007 51.59388 108.06049 -7.12082 9.30790 0.86408 11.04987 -36.11708 25.85956 364.17700 63.35833 -351.66751 28.34058 -0.61132 0.97817 -39.96485 -8.61329 -25.20944 -25.48732 -14.02923 -10.54659 -359.28442 53.05630 378.60110 33.59604 0.10153 0.08649 -3.63697 2.72810 -14.41701 
94.62955 79.93584 -104.23100 -12.31051 -0.43510 -36.21969 9.75804 12.57609 4.57891 -0.01105 0.02695 0.02580 -2.68087 15.43869 6.27948 -13.87193 15.93348 12.02897 -105.01500 -55.24847 -87.23495 -42.53527 58.87014 -101.54943 7.73633 9.78995 1.36635 6.92593 21.70706 17.10086 71.45382 -28.16425 75.03329 31.45850 51.05663 108.89341 -6.39210 10.95435 1.04094 8.25167 -31.93667 23.35147 368.70770 55.76469 -359.69406 19.02573 -0.62504 0.40458 -31.36312 -15.78722 -13.61765 -20.66277 -12.26783 -14.09284 -362.40970 60.81498 383.91049 35.46559 0.07288 0.15055 1.75037 9.44304 -14.72277 
97.06467 83.60662 -103.12231 -12.15735 -0.21473 -38.56150 10.21822 12.23618 4.80953 -0.00939 0.02499 0.02320 -5.07380 19.31536 6.68290 -15.05988 15.61777 13.03111 -103.36327 -55.52226 -85.33324 -41.11760 59.15945 -103.06333 8.83024 10.05133 2.53017 5.94856 21.82082 17.86041 70.45700 -28.42293 73.13476 31.18184 50.56157 109.93568 -6.57735 9.37090 0.71605 5.69683 -28.34892 20.14209 370.89236 48.14809 -365.46008 9.46612 -0.68439 0.40863 -14.76236 -2.55104 -19.40985 -15.33673 -9.91842 -16.97264 -364.01691 67.10818 386.45834 22.55495 -0.30393 -0.79066 18.67622 7.39019 -7.60587 
99.19160 86.83893 -102.42306 -9.77001 -0.64299 -41.11087 7.34045 12.25714 6.09146 -0.06768 0.11015 0.02944 -6.26623 21.21707 6.83924 -14.98666 14.02253 13.20316 -101.80161 -55.73056 -83.51369 -39.70697 59.42423 -104.50380 8.18969 9.76077 1.22879 6.20366 20.47429 18.22047 69.34533 -28.54057 71.10518 30.74063 50.19692 111.16015 -5.94712 10.31037 0.77404 1.74632 -26.24080 16.74707 372.17752 40.79644 -369.57599 -0.42160 -0.78138 0.33860 -11.14323 -4.21685 -7.37388 -11.62318 -7.70107 -18.70914 -365.63766 69.57104 386.97253 33.43972 0.05637 0.46076 -6.18394 -0.13316 -7.93407 
101.15782 89.52393 -102.14355 -5.67541 -1.37705 -44.11189 2.81989 11.12641 8.13843 -0.00135 0.01375 0.01453 -7.37328 22.77075 7.09303 -14.64952 12.69695 12.81837 -100.59972 -56.15521 -81.95827 -38.40056 59.55086 -105.65840 8.72434 9.79069 1.69349 6.70878 19.21907 18.15091 68.15177 -28.37403 69.08460 30.17987 49.90108 112.35136 -6.14946 9.73036 0.66465 -3.12544 -25.66583 13.14721 373.53085 33.91582 -372.17984 -10.86324 -0.83708 0.20843 13.44672 0.62760 -9.86595 -9.32800 -5.60510 -19.10543 -366.24844 68.28208 385.52216 17.54835 -0.28651 -0.38357 -0.35695 -18.23127 2.63136 
102.84029 91.60285 -102.22740 -2.19801 -2.08550 -46.72412 -1.12693 9.96832 9.80853 0.00142 0.00536 0.01034 -8.16681 23.77431 7.40908 -13.87469 11.37456 12.08449 -99.65056 -56.65538 -80.63130 -37.36782 59.51591 -106.45718 8.28356 9.65700 0.69491 7.57653 17.84882 17.90039 66.98997 -27.99131 67.23232 29.44784 49.63014 113.44170 -5.76422 10.36782 0.93370 -7.28333 -25.25616 8.39846 375.12939 28.01226 -373.46466 -21.72192 -0.83881 0.03149 11.55063 2.07177 2.45257 -7.11229 -2.35716 -18.78882 -364.65695 62.12531 381.46576 15.45251 -0.13849 -0.01384 -5.78202 -30.14358 -0.50117 
104.30157 93.11604 -102.56003 0.67076 -2.68486 -49.01139 -4.50176 8.84409 11.14475 0.00105 0.00322 0.00793 -8.71941 24.34037 7.81174 -12.74355 10.19056 11.23560 -99.03056 -57.13924 -79.67890 -36.78525 59.23158 -106.75558 8.44930 9.74211 0.83640 8.54411 16.50948 17.49971 66.14271 -27.37320 65.77249 28.65235 49.37917 114.34270 -6.02693 9.98985 1.14225 -10.51193 -24.88396 2.81478 376.84305 23.45975 -373.77405 -32.67762 -0.77660 -0.16441 30.21778 3.72170 -9.62617 -5.42700 1.72265 -17.77716 -363.23593 52.96866 377.10593 6.82673 -0.21415 0.18781 -6.55416 -39.86188 -4.07825 
105.84033 93.89740 -103.03525 2.94338 -3.13164 -51.10784 -7.30445 7.82266 12.24884 -0.00088 0.00864 0.00679 -9.05675 24.50141 8.30736 -5.14779 9.34123 -0.56366 -108.61453 -67.65894 -83.05841 -36.64492 59.02035 -107.27928 7.94944 9.40851 0.03223 13.71182 10.85011 5.71842 62.64680 -14.94616 64.99887 27.91995 48.99690 114.50074 -6.00867 10.64850 1.48931 -12.68884 -24.64784 -3.34624 376.74640 20.61664 -373.08371 -30.26896 0.10889 0.02386 19.28058 6.09057 1.74477 -4.37711 5.44879 -16.92090 -363.22794 42.76830 374.75729 2.05411 -0.17828 0.18669 10.82817 -33.26019 -12.24006 
107.30823 94.25970 -103.56316 4.93698 -3.53883 -53.17682 -9.85294 6.77606 13.15245 -0.00095 0.00673 0.00426 -9.36148 24.55463 8.95681 0.15513 7.85760 -8.00269 -119.06106 -74.60225 -89.42635 -36.91267 58.76633 -107.88099 7.55791 9.13635 -0.41133 16.93056 6.35400 -1.58030 60.39418 -6.52115 64.86497 27.33002 48.52857 114.29572 -6.08101 10.97095 1.83084 -14.52014 -24.52803 -9.64301 376.52289 18.01094 -372.30905 -27.44840 0.20865 0.02781 9.68548 5.02059 6.73480 -3.68158 9.05265 -16.13175 -363.59381 32.51104 372.96362 -1.71381 -0.10657 0.15339 15.96148 -30.87387 -20.25597 
